<svg xmlns="http://www.w3.org/2000/svg" width="2083" height="361" viewBox="0 0 2083 361">
  <metadata><?xpacket begin="﻿" id="W5M0MpCehiHzreSzNTczkc9d"?>
<x:xmpmeta xmlns:x="adobe:ns:meta/" x:xmptk="Adobe XMP Core 5.6-c140 79.160451, 2017/05/06-01:08:21        ">
   <rdf:RDF xmlns:rdf="http://www.w3.org/1999/02/22-rdf-syntax-ns#">
      <rdf:Description rdf:about=""/>
   </rdf:RDF>
</x:xmpmeta>
                                                                                                    
                                                                                                    
                                                                                                    
                                                                                                    
                                                                                                    
                                                                                                    
                                                                                                    
                                                                                                    
                                                                                                    
                                                                                                    
                                                                                                    
                                                                                                    
                                                                                                    
                                                                                                    
                                                                                                    
                                                                                                    
                                                                                                    
                                                                                                    
                                                                                                    
                                                                                                    
                           
<?xpacket end="w"?></metadata>
<defs>
    <style>
      .cls-1 {
        fill: #93376f;
      }

      .cls-1, .cls-2 {
        fill-rule: evenodd;
      }

      .cls-2 {
        fill: #376993;
      }
    </style>
  </defs>
  <path id="answers" class="cls-1" d="M314.634,69.008V98.616H483.981A14.18,14.18,0,0,1,498.063,112.7v46.219H314.634v75.827a43.764,43.764,0,0,0,43.691,43.69H528.033V112.7a43.767,43.767,0,0,0-44.052-43.69H314.634Zm43.691,179.818a14.179,14.179,0,0,1-14.082-14.082V188.525h153.82v60.3H358.325Zm202.2-179.818V278.434h29.608V112.7a13.286,13.286,0,0,1,4.333-9.929,14.165,14.165,0,0,1,10.11-4.153H730.232A14.18,14.18,0,0,1,744.315,112.7V278.434h29.608V112.7a43.764,43.764,0,0,0-43.691-43.69H560.525ZM1010.25,81.826a42.526,42.526,0,0,0-31.233-12.818H853.361A43.764,43.764,0,0,0,809.67,112.7v32.137a43.764,43.764,0,0,0,43.691,43.69H979.017A14.18,14.18,0,0,1,993.1,202.607v32.137a14.18,14.18,0,0,1-14.082,14.082H853.361a14.18,14.18,0,0,1-14.083-14.082v-2.889H809.67v2.889a43.764,43.764,0,0,0,43.691,43.69H979.017a43.769,43.769,0,0,0,44.053-43.69V202.607a43.769,43.769,0,0,0-44.053-43.69H853.361a14.18,14.18,0,0,1-14.083-14.082V112.7a14.18,14.18,0,0,1,14.083-14.082H979.017A14.18,14.18,0,0,1,993.1,112.7v2.889h29.971V112.7A42.11,42.11,0,0,0,1010.25,81.826Zm316.12,142.807L1254.52,69.008h-39L1148,224.994,1084.45,69.008h-31.78L1135,278.434h26l74.02-172.957,77.99,172.957h25.64l79.08-209.426h-32.14ZM1481.64,69.008a43.768,43.768,0,0,0-43.69,43.69V234.744a43.767,43.767,0,0,0,43.69,43.69h169.71V248.826H1481.64a14.175,14.175,0,0,1-14.08-14.082V188.525h183.79V112.7a43.769,43.769,0,0,0-44.05-43.69H1481.64Zm-14.08,43.69a14.175,14.175,0,0,1,14.08-14.082H1607.3a14.175,14.175,0,0,1,14.08,14.082v46.219H1467.56V112.7Zm231.63-30.872a42.072,42.072,0,0,0-12.82,30.872V278.434h29.61V112.7a14.175,14.175,0,0,1,14.08-14.082h117.71V69.008H1730.06A42.076,42.076,0,0,0,1699.19,81.826Zm371.19,0a42.529,42.529,0,0,0-31.23-12.818H1913.49a43.768,43.768,0,0,0-43.69,43.69v32.137a43.767,43.767,0,0,0,43.69,43.69h125.66a14.193,14.193,0,0,1,14.08,14.082v32.137a14.193,14.193,0,0,1-14.08,14.082H1913.49a14.175,14.175,0,0,1-14.08-14.082v-2.889H1869.8v2.889a43.767,43.767,0,0,0,43.69,43.69h125.66a43.768,43.768,0,0,0,44.05-43.69V202.607a43.768,43.768,0,0,0-44.05-43.69H1913.49a14.175,14.175,0,0,1-14.08-14.082V112.7a14.175,14.175,0,0,1,14.08-14.082h125.66a14.192,14.192,0,0,1,14.08,14.082v2.889h29.97V112.7A42.11,42.11,0,0,0,2070.38,81.826Z"/>
  <path id="_" data-name="?" class="cls-2" d="M-0.4,112.715H136.1v43.658H70.032A40.662,40.662,0,0,0,40.2,168.742a40.651,40.651,0,0,0-12.37,29.833v22.7H72.651V201.194h65.486A42.481,42.481,0,0,0,180.631,158.7V110.387a42.235,42.235,0,0,0-42.494-42.2H-0.4v44.53Zm73.053,120.5H27.83v44.53H72.651V233.21Z"/>
</svg>
